# xmcd CD Database Entry
#
# Track frame offsets:
# 150
# 15475
# 28594
# 45996
# 62957
# 79908
# 97355
# 117745
# 142884
# 164876
# 189907
# 203253
# 222497
# 239977
# 258461
#
# Disc length: 3844 seconds
#
# Revision: 16
# Processed by: cddbd v1.4PL0 Copyright (c) Steve Scherf et al.
# Submitted via: tcd 2.0b
#
DISCID=e00f020f
DTITLE=모름 - 모름
DYEAR=1900
DGENRE=
TTITLE0=1번 트랙
TTITLE1=2번 트랙
TTITLE2=3번 트랙
TTITLE3=4번 트랙
TTITLE4=5번 트랙
TTITLE5=6번 트랙
TTITLE6=7번 트랙
TTITLE7=8번 트랙
TTITLE8=9번 트랙
TTITLE9=10번 트랙
TTITLE10=11번 트랙
TTITLE11=12번 트랙
TTITLE12=13번 트랙
TTITLE13=14번 트랙
TTITLE14=15번 트랙
EXTD=pop - world
EXTT0=Shine
EXTT1=try to remenber
EXTT2=good guy
EXTT3=atlantice princess
EXTT4=if marry
EXTT5=if ending
EXTT6=record of silence
EXTT7=you for to you
EXTT8=none
EXTT9=for hope
EXTT10=RFC
EXTT11=canon techno
EXTT12=if do can
EXTT13=Stay (Extended version)
EXTT14=backstreet boys(nonstopremix)
PLAYORDER=
